<mxfile host="app.diagrams.net" modified="2023-06-30T04:22:19.764Z" agent="Mozilla/5.0 (Windows NT 10.0; Win64; x64; rv:109.0) Gecko/20100101 Firefox/114.0" etag="cYQGMoCmCMLMqm4MFxSa" version="21.5.2" type="github">
  <diagram id="C5RBs43oDa-KdzZeNtuy" name="Page-1">
    <mxGraphModel dx="1562" dy="846" grid="1" gridSize="10" guides="1" tooltips="1" connect="1" arrows="1" fold="1" page="1" pageScale="1" pageWidth="827" pageHeight="1169" math="0" shadow="0">
      <root>
        <mxCell id="WIyWlLk6GJQsqaUBKTNV-0" />
        <mxCell id="WIyWlLk6GJQsqaUBKTNV-1" parent="WIyWlLk6GJQsqaUBKTNV-0" />
        <mxCell id="BekjgWnjLqrapIUSrEnC-6" style="edgeStyle=orthogonalEdgeStyle;rounded=0;orthogonalLoop=1;jettySize=auto;html=1;exitX=0.5;exitY=1;exitDx=0;exitDy=0;entryX=0.5;entryY=0;entryDx=0;entryDy=0;" edge="1" parent="WIyWlLk6GJQsqaUBKTNV-1" source="WIyWlLk6GJQsqaUBKTNV-3" target="BekjgWnjLqrapIUSrEnC-5">
          <mxGeometry relative="1" as="geometry" />
        </mxCell>
        <mxCell id="BekjgWnjLqrapIUSrEnC-22" style="edgeStyle=orthogonalEdgeStyle;rounded=0;orthogonalLoop=1;jettySize=auto;html=1;entryX=0.5;entryY=0;entryDx=0;entryDy=0;" edge="1" parent="WIyWlLk6GJQsqaUBKTNV-1" source="WIyWlLk6GJQsqaUBKTNV-3" target="BekjgWnjLqrapIUSrEnC-19">
          <mxGeometry relative="1" as="geometry" />
        </mxCell>
        <mxCell id="WIyWlLk6GJQsqaUBKTNV-3" value="&lt;b&gt;RedLotus Bootkit (redLotus.efi)&lt;/b&gt;" style="rounded=1;whiteSpace=wrap;html=1;fontSize=12;glass=0;strokeWidth=1;shadow=0;" parent="WIyWlLk6GJQsqaUBKTNV-1" vertex="1">
          <mxGeometry x="70" y="50" width="250" height="70" as="geometry" />
        </mxCell>
        <mxCell id="BekjgWnjLqrapIUSrEnC-10" style="edgeStyle=orthogonalEdgeStyle;rounded=0;orthogonalLoop=1;jettySize=auto;html=1;exitX=0.5;exitY=1;exitDx=0;exitDy=0;entryX=0.5;entryY=0;entryDx=0;entryDy=0;" edge="1" parent="WIyWlLk6GJQsqaUBKTNV-1" source="BekjgWnjLqrapIUSrEnC-5" target="BekjgWnjLqrapIUSrEnC-7">
          <mxGeometry relative="1" as="geometry" />
        </mxCell>
        <mxCell id="BekjgWnjLqrapIUSrEnC-21" style="edgeStyle=orthogonalEdgeStyle;rounded=0;orthogonalLoop=1;jettySize=auto;html=1;entryX=0;entryY=0.5;entryDx=0;entryDy=0;" edge="1" parent="WIyWlLk6GJQsqaUBKTNV-1" source="BekjgWnjLqrapIUSrEnC-5" target="BekjgWnjLqrapIUSrEnC-17">
          <mxGeometry relative="1" as="geometry" />
        </mxCell>
        <mxCell id="BekjgWnjLqrapIUSrEnC-5" value="&lt;b&gt;ImgArchStartBootApplication (bootmgfw.efi)&lt;/b&gt;" style="rounded=1;whiteSpace=wrap;html=1;fontSize=12;glass=0;strokeWidth=1;shadow=0;" vertex="1" parent="WIyWlLk6GJQsqaUBKTNV-1">
          <mxGeometry x="70" y="150" width="250" height="70" as="geometry" />
        </mxCell>
        <mxCell id="BekjgWnjLqrapIUSrEnC-16" style="edgeStyle=orthogonalEdgeStyle;rounded=0;orthogonalLoop=1;jettySize=auto;html=1;entryX=0.5;entryY=0;entryDx=0;entryDy=0;" edge="1" parent="WIyWlLk6GJQsqaUBKTNV-1" source="BekjgWnjLqrapIUSrEnC-7" target="BekjgWnjLqrapIUSrEnC-15">
          <mxGeometry relative="1" as="geometry" />
        </mxCell>
        <mxCell id="BekjgWnjLqrapIUSrEnC-20" style="edgeStyle=orthogonalEdgeStyle;rounded=0;orthogonalLoop=1;jettySize=auto;html=1;entryX=0;entryY=0.5;entryDx=0;entryDy=0;" edge="1" parent="WIyWlLk6GJQsqaUBKTNV-1" source="BekjgWnjLqrapIUSrEnC-7" target="BekjgWnjLqrapIUSrEnC-18">
          <mxGeometry relative="1" as="geometry" />
        </mxCell>
        <mxCell id="BekjgWnjLqrapIUSrEnC-7" value="&lt;b&gt;OslFwpKernelSetupPhase1 (winload.efi)&lt;/b&gt;" style="rounded=1;whiteSpace=wrap;html=1;fontSize=12;glass=0;strokeWidth=1;shadow=0;" vertex="1" parent="WIyWlLk6GJQsqaUBKTNV-1">
          <mxGeometry x="70" y="250" width="250" height="70" as="geometry" />
        </mxCell>
        <mxCell id="BekjgWnjLqrapIUSrEnC-15" value="&lt;b&gt;OslArchTransferToKernel (ntoskrnl.exe)&lt;/b&gt;" style="rounded=1;whiteSpace=wrap;html=1;fontSize=12;glass=0;strokeWidth=1;shadow=0;" vertex="1" parent="WIyWlLk6GJQsqaUBKTNV-1">
          <mxGeometry x="70" y="350" width="250" height="70" as="geometry" />
        </mxCell>
        <mxCell id="BekjgWnjLqrapIUSrEnC-28" style="edgeStyle=orthogonalEdgeStyle;rounded=0;orthogonalLoop=1;jettySize=auto;html=1;exitX=1;exitY=0.5;exitDx=0;exitDy=0;entryX=0;entryY=0.5;entryDx=0;entryDy=0;" edge="1" parent="WIyWlLk6GJQsqaUBKTNV-1" source="BekjgWnjLqrapIUSrEnC-17" target="BekjgWnjLqrapIUSrEnC-19">
          <mxGeometry relative="1" as="geometry" />
        </mxCell>
        <mxCell id="BekjgWnjLqrapIUSrEnC-17" value="&lt;b&gt;BlImgAllocateImageBuffer (winload.efi)&lt;/b&gt;" style="rounded=1;whiteSpace=wrap;html=1;fontSize=12;glass=0;strokeWidth=1;shadow=0;" vertex="1" parent="WIyWlLk6GJQsqaUBKTNV-1">
          <mxGeometry x="400" y="150" width="250" height="70" as="geometry" />
        </mxCell>
        <mxCell id="BekjgWnjLqrapIUSrEnC-27" style="edgeStyle=orthogonalEdgeStyle;rounded=0;orthogonalLoop=1;jettySize=auto;html=1;entryX=0;entryY=0.5;entryDx=0;entryDy=0;" edge="1" parent="WIyWlLk6GJQsqaUBKTNV-1" source="BekjgWnjLqrapIUSrEnC-18" target="BekjgWnjLqrapIUSrEnC-19">
          <mxGeometry relative="1" as="geometry" />
        </mxCell>
        <mxCell id="BekjgWnjLqrapIUSrEnC-18" value="&lt;b&gt;ManualMapper (redlotus.efi)&lt;/b&gt;" style="rounded=1;whiteSpace=wrap;html=1;fontSize=12;glass=0;strokeWidth=1;shadow=0;" vertex="1" parent="WIyWlLk6GJQsqaUBKTNV-1">
          <mxGeometry x="400" y="250" width="250" height="70" as="geometry" />
        </mxCell>
        <mxCell id="BekjgWnjLqrapIUSrEnC-19" value="&lt;b&gt;Windows Kernel Rootkit Driver Manual Mapper&lt;br&gt;(redlotus.sys)&lt;/b&gt;" style="rounded=1;whiteSpace=wrap;html=1;fontSize=12;glass=0;strokeWidth=1;shadow=0;" vertex="1" parent="WIyWlLk6GJQsqaUBKTNV-1">
          <mxGeometry x="770" y="210" width="250" height="70" as="geometry" />
        </mxCell>
        <mxCell id="BekjgWnjLqrapIUSrEnC-29" value="&lt;b&gt;NtConvertBetweenAuxiliaryCounterAndPerformanceCounter (client.exe)&lt;/b&gt;" style="rounded=1;whiteSpace=wrap;html=1;fontSize=12;glass=0;strokeWidth=1;shadow=0;" vertex="1" parent="WIyWlLk6GJQsqaUBKTNV-1">
          <mxGeometry x="715" y="490" width="360" height="70" as="geometry" />
        </mxCell>
        <mxCell id="BekjgWnjLqrapIUSrEnC-33" value="" style="endArrow=none;html=1;rounded=0;" edge="1" parent="WIyWlLk6GJQsqaUBKTNV-1">
          <mxGeometry width="50" height="50" relative="1" as="geometry">
            <mxPoint y="440" as="sourcePoint" />
            <mxPoint x="1280" y="440" as="targetPoint" />
          </mxGeometry>
        </mxCell>
        <mxCell id="BekjgWnjLqrapIUSrEnC-36" value="&lt;b&gt;xKdEnumerateDebuggingDevices&lt;br&gt;&lt;/b&gt;" style="rounded=1;whiteSpace=wrap;html=1;fontSize=12;glass=0;strokeWidth=1;shadow=0;" vertex="1" parent="WIyWlLk6GJQsqaUBKTNV-1">
          <mxGeometry x="770" y="330" width="250" height="70" as="geometry" />
        </mxCell>
      </root>
    </mxGraphModel>
  </diagram>
</mxfile>
